<?xml version="1.0" encoding="UTF-8"?><svg id="a" xmlns="http://www.w3.org/2000/svg" width="50" height="80" viewBox="0 0 50 80"><path d="M25,79.5c-.62,0-1.17-.3-1.48-.81L.73,41.04c-.29-.49-.3-1.05-.03-1.54.3-.53.86-.85,1.51-.85h8.6V2.1c0-.88.76-1.6,1.7-1.6h24.98c.94,0,1.7.72,1.7,1.6v36.54h8.6c.64,0,1.21.32,1.51.85.28.49.27,1.05-.03,1.54l-22.79,37.65c-.31.51-.86.81-1.48.81Z" fill="#fff"/><path d="M37.49,1c.66,0,1.2.49,1.2,1.1v37.04h9.1c.46,0,.86.22,1.07.6.09.16.26.57-.02,1.04l-22.79,37.65c-.22.36-.61.57-1.05.57s-.84-.21-1.05-.57L1.15,40.78c-.28-.46-.11-.88-.02-1.04.21-.38.61-.6,1.07-.6h9.1V2.1c0-.61.54-1.1,1.2-1.1h24.98M37.49,0H12.51c-1.22,0-2.2.94-2.2,2.1v36.04H2.21c-1.7,0-2.76,1.75-1.91,3.15l22.79,37.65c.42.7,1.17,1.05,1.91,1.05s1.48-.35,1.91-1.05l22.79-37.65c.85-1.4-.21-3.15-1.91-3.15h-8.1V2.1c0-1.16-.99-2.1-2.2-2.1h0Z"/></svg>