<?xml version="1.0" encoding="UTF-8"?><svg id="a" xmlns="http://www.w3.org/2000/svg" width="50" height="80" viewBox="0 0 50 80"><path d="M12.51,79.5c-.94,0-1.7-.72-1.7-1.6v-36.54H2.21c-.64,0-1.21-.32-1.51-.85-.28-.49-.27-1.05.03-1.54L23.52,1.31c.31-.51.86-.81,1.48-.81s1.17.3,1.48.81l22.79,37.65c.29.49.3,1.05.03,1.54-.3.53-.86.85-1.51.85h-8.6v36.54c0,.88-.76,1.6-1.7,1.6H12.51Z" fill="#fff"/><path d="M25,1c.44,0,.84.21,1.05.57l22.79,37.65c.28.46.11.88.02,1.04-.21.38-.61.6-1.07.6h-9.1v37.04c0,.61-.54,1.1-1.2,1.1H12.51c-.66,0-1.2-.49-1.2-1.1v-37.04H2.21c-.46,0-.86-.22-1.07-.6-.09-.16-.26-.57.02-1.04L23.95,1.57c.22-.36.61-.57,1.05-.57M25,0c-.74,0-1.48.35-1.91,1.05L.3,38.7c-.85,1.4.21,3.15,1.91,3.15h8.1v36.04c0,1.16.99,2.1,2.2,2.1h24.98c1.22,0,2.2-.94,2.2-2.1v-36.04h8.1c1.7,0,2.76-1.75,1.91-3.15L26.91,1.05c-.42-.7-1.17-1.05-1.91-1.05h0Z"/></svg>